<svg id="Layer_1" enable-background="new 0 0 512 512" height="512" viewBox="0 0 512 512" width="512" xmlns="http://www.w3.org/2000/svg"><g><g><path d="m505.904 242.746c-1.659-1.659-3.559-2.982-5.608-3.982-1.136-16.054-3.857-31.988-8.114-47.514.209-.212.409-.43.596-.655 5.15-5.651 6.811-13.805 4.217-21.033-3.996-11.167-8.799-22.117-14.275-32.549-5.287-10.07-11.338-19.91-17.989-29.251-.813-1.278-1.768-2.468-2.844-3.544-4.991-4.99-11.904-6.898-18.376-5.751-4.554-5.418-9.354-10.656-14.328-15.63-4.956-4.955-10.203-9.755-15.645-14.333.408-2.285.453-4.643.07-7.001-.892-5.48-3.863-10.285-8.377-13.535-9.647-6.933-19.817-13.219-30.229-18.684-10.114-5.31-20.714-9.987-31.511-13.903-7.698-3.217-16.755-1.459-22.69 4.424-15.507-4.238-31.454-6.947-47.553-8.077-1.024-2.1-2.387-4.043-4.102-5.73-3.916-3.852-9.083-5.966-14.546-5.966-.06 0-.119 0-.178 0-33.602.204-66.306 6.851-97.202 19.759-30.842 12.885-58.514 31.452-82.245 55.185-23.733 23.733-42.301 51.404-55.186 82.245-12.753 30.527-19.396 62.84-19.747 96.04-.378 5.97 1.815 11.792 6.054 16.03 1.664 1.664 3.569 2.99 5.624 3.991 1.13 16.091 3.838 32.029 8.076 47.532-.2.204-.392.412-.571.628-5.147 5.651-6.806 13.802-4.213 21.027 3.991 11.153 8.792 22.099 14.271 32.536 5.287 10.07 11.341 19.915 17.996 29.267.816 1.28 1.771 2.469 2.843 3.54 3.931 3.932 9.158 6.097 14.718 6.097 1.245 0 2.47-.125 3.671-.338 4.575 5.438 9.37 10.677 14.316 15.623 4.959 4.96 10.211 9.765 15.658 14.345-.402 2.276-.445 4.622-.063 6.971.892 5.479 3.864 10.284 8.376 13.533 9.64 6.93 19.806 13.214 30.216 18.679 10.106 5.305 20.71 9.983 31.521 13.906 2.627 1.102 5.37 1.638 8.087 1.638 5.357 0 10.6-2.093 14.602-6.057 15.518 4.239 31.471 6.958 47.575 8.086 1.023 2.093 2.383 4.029 4.093 5.71 3.916 3.852 9.084 5.966 14.548 5.966h.175c33.6-.201 66.3-6.846 97.194-19.75 30.837-12.88 58.505-31.444 82.236-55.176 23.73-23.729 42.295-51.398 55.176-82.236 12.751-30.528 19.392-62.834 19.738-96.033.376-5.972-1.818-11.792-6.055-16.03zm-263.158 233.722c-.256.256-.496.525-.721.805-.86.952-1.621 1.971-2.282 3.043-10.774-.776-21.469-2.336-31.99-4.634l267.897-267.896c2.311 10.524 3.877 21.205 4.659 31.951-1.374.847-2.67 1.839-3.84 3.01zm227.396-319.748c2.959 6.395 5.648 12.947 8.025 19.589.161.45-.129.772-.188.832-.157.157-.308.318-.451.483l-123.067 123.066v-28.29zm-76.275-92.007c.052.32-.091.519-.147.598-.022.031-.048.061-.08.092-.175.176-.343.357-.502.542l-188.398 188.398v-28.29l172.544-172.544c5.555 3.335 10.998 6.907 16.266 10.694.066.046.265.189.317.51zm-373.829 189.047c.287-30.715 6.412-60.603 18.206-88.832 11.875-28.424 28.991-53.932 50.873-75.813 21.88-21.881 47.387-38.997 75.812-50.873 28.48-11.898 58.632-18.025 89.638-18.213h.016c.094 0 .321.011.539.225.231.228.233.471.233.55.001.082.003.33-.229.562-.188.188-.367.382-.537.582l-233.2 233.199c-.06.059-.238.238-.575.238s-.517-.179-.575-.239c-.177-.177-.256-.395-.235-.647.02-.246.031-.492.034-.739zm26.953 111.946c-5.047-9.614-9.471-19.7-13.152-29.986-.161-.45.129-.771.188-.831.158-.159.311-.321.456-.487l50.192-50.192c3.905-3.905 3.905-10.237 0-14.143-3.906-3.905-10.236-3.905-14.143 0l-34.196 34.196c-2.297-10.515-3.858-21.202-4.634-31.971 1.37-.845 2.662-1.836 3.828-3.002l233.759-233.759c.259-.259.501-.529.726-.809.852-.944 1.605-1.954 2.262-3.016 10.772.776 21.462 2.341 31.978 4.638l-170.082 170.083c-3.905 3.905-3.905 10.237 0 14.143 3.906 3.905 10.236 3.905 14.143 0l186.562-186.564c.313-.313.717-.254.908-.17.209.092.421.177.635.254 7.651 2.765 15.193 5.947 22.509 9.487l-171.261 171.262c-1.875 1.875-2.929 4.419-2.929 7.071v52.432l-119.324 119.325c-.06.059-.239.239-.577.239-.337 0-.516-.179-.575-.239-.051-.051-.096-.107-.135-.172-.124-.203-.256-.401-.394-.595-6.199-8.689-11.832-17.838-16.744-27.194zm38.144 36.526 317.088-317.088c4.443 3.805 8.743 7.759 12.817 11.833 4.093 4.093 8.042 8.393 11.831 12.82l-317.086 317.086c-4.443-3.805-8.742-7.759-12.817-11.834-4.073-4.072-8.027-8.371-11.833-12.817zm91.108 75.938c-.208-.092-.42-.176-.634-.254-10.054-3.635-19.912-7.978-29.301-12.906-9.587-5.032-18.953-10.822-27.831-17.205-.065-.047-.265-.19-.316-.512-.053-.321.091-.519.131-.576.032-.044.063-.082.097-.114.175-.176.343-.357.502-.542l327.703-327.703c.317-.317.835-.318 1.148-.003.05.049.091.101.125.157.127.209.263.415.404.614 4.369 6.121 8.452 12.477 12.206 18.972l-123.087 123.089c-1.875 1.875-2.929 4.419-2.929 7.071v52.432l-157.309 157.309c-.386.386-.855.195-.909.171zm81.228 13.8c-.084.003-.324.002-.556-.225s-.233-.471-.233-.554c-.001-.081-.003-.326.231-.56.189-.19.37-.385.541-.586l77.007-77.007v28.289l-48.802 48.802c-9.301 1.165-18.704 1.784-28.188 1.841zm234.491-233.695c-.284 30.712-6.406 60.596-18.197 88.823-11.871 28.422-28.984 53.925-50.863 75.803-21.879 21.88-47.383 38.993-75.803 50.863-8.479 3.542-17.109 6.56-25.863 9.074l30.296-30.297c1.875-1.875 2.929-4.419 2.929-7.071v-52.431l136.15-136.15c.06-.059.238-.238.575-.238.338 0 .518.18.575.238.177.177.256.396.234.65-.02.244-.03.49-.033.736z"/><path d="m238.052 373.995c-4.087-3.715-10.411-3.415-14.126.673l-.005.005c-3.715 4.086-3.411 10.408.675 14.124 1.916 1.741 4.322 2.599 6.723 2.599 2.721 0 5.433-1.104 7.406-3.275 3.714-4.087 3.414-10.411-.673-14.126z"/><path d="m181.498 417.095-.005.005c-3.715 4.086-3.411 10.408.675 14.124 1.916 1.741 4.322 2.599 6.723 2.599 2.721 0 5.433-1.104 7.406-3.275 3.715-4.086 3.414-10.411-.673-14.126s-10.41-3.415-14.126.673z"/><path d="m165.508 78.594c2.721 0 5.433-1.104 7.406-3.275 3.715-4.086 3.414-10.411-.673-14.126s-10.411-3.415-14.126.673l-.005.005c-3.715 4.086-3.411 10.408.675 14.123 1.916 1.742 4.322 2.6 6.723 2.6z"/><path d="m123.08 121.022c2.721 0 5.433-1.104 7.406-3.275 3.715-4.086 3.414-10.411-.673-14.126s-10.41-3.415-14.126.673l-.005.005c-3.715 4.086-3.411 10.408.675 14.123 1.916 1.742 4.323 2.6 6.723 2.6z"/><path d="m109.419 255.32c2.719 0 5.429-1.103 7.402-3.273l.005-.005c3.715-4.086 3.411-10.408-.675-14.123-4.088-3.715-10.414-3.412-14.129.675-3.715 4.086-3.414 10.411.673 14.126 1.916 1.741 4.323 2.6 6.724 2.6z"/></g></g></svg>