<svg id="_x31_px" height="512" viewBox="0 0 24 24" width="512" xmlns="http://www.w3.org/2000/svg"><path d="m21.5 11c-.276 0-.5-.224-.5-.5v-7c0-.276-.225-.5-.5-.5h-2c-.276 0-.5-.224-.5-.5s.224-.5.5-.5h2c.827 0 1.5.673 1.5 1.5v7c0 .276-.224.5-.5.5z"/><path d="m9.5 17h-8c-.827 0-1.5-.673-1.5-1.5v-12c0-.812.669-1.485 1.491-1.5h2.009c.276 0 .5.224.5.5s-.224.5-.5.5h-2c-.271.005-.5.229-.5.5v12c0 .276.225.5.5.5h8c.276 0 .5.224.5.5s-.224.5-.5.5z"/><path d="m19.5 24c-.276 0-.5-.224-.5-.5v-2c0-.276.224-.5.5-.5s.5.224.5.5v2c0 .276-.224.5-.5.5z"/><path d="m16.5 24c-.276 0-.5-.224-.5-.5v-2c0-.276.224-.5.5-.5s.5.224.5.5v2c0 .276-.224.5-.5.5z"/><path d="m19.5 15c-.276 0-.5-.224-.5-.5v-2c0-.276.224-.5.5-.5s.5.224.5.5v2c0 .276-.224.5-.5.5z"/><path d="m16.5 15c-.276 0-.5-.224-.5-.5v-2c0-.276.224-.5.5-.5s.5.224.5.5v2c0 .276-.224.5-.5.5z"/><path d="m14.5 20h-2c-.276 0-.5-.224-.5-.5s.224-.5.5-.5h2c.276 0 .5.224.5.5s-.224.5-.5.5z"/><path d="m14.5 17h-2c-.276 0-.5-.224-.5-.5s.224-.5.5-.5h2c.276 0 .5.224.5.5s-.224.5-.5.5z"/><path d="m23.5 20h-2c-.276 0-.5-.224-.5-.5s.224-.5.5-.5h2c.276 0 .5.224.5.5s-.224.5-.5.5z"/><path d="m23.5 17h-2c-.276 0-.5-.224-.5-.5s.224-.5.5-.5h2c.276 0 .5.224.5.5s-.224.5-.5.5z"/><path d="m20.5 22h-5c-.827 0-1.5-.673-1.5-1.5v-5c0-.827.673-1.5 1.5-1.5h5c.827 0 1.5.673 1.5 1.5v5c0 .827-.673 1.5-1.5 1.5zm-5-7c-.275 0-.5.224-.5.5v5c0 .276.225.5.5.5h5c.275 0 .5-.224.5-.5v-5c0-.276-.225-.5-.5-.5z"/><path d="m19.5 20h-3c-.276 0-.5-.224-.5-.5v-3c0-.276.224-.5.5-.5h3c.276 0 .5.224.5.5v3c0 .276-.224.5-.5.5zm-2.5-1h2v-2h-2z"/><path d="m9.68 16c-.091 0-.183-.024-.266-.076-1.499-.938-3.046-1.301-4.728-1.107-.433.052-.867-.084-1.19-.372-.315-.281-.496-.684-.496-1.105v-11.75c0-.748.56-1.391 1.301-1.495 2.385-.354 4.64.311 6.699 1.982 2.059-1.67 4.316-2.334 6.703-1.981.737.103 1.297.746 1.297 1.494v7.91c0 .276-.224.5-.5.5s-.5-.224-.5-.5v-7.91c0-.252-.189-.47-.439-.505-2.253-.337-4.29.328-6.231 2.022-.189.164-.469.164-.658 0-1.943-1.694-3.975-2.354-6.229-2.023-.254.036-.443.253-.443.506v11.75c0 .138.057.265.16.357.11.098.262.143.411.126 1.895-.218 3.698.205 5.374 1.253.233.146.305.455.158.689-.094.152-.257.235-.423.235z"/><path d="m11 14c-.276 0-.5-.224-.5-.5v-11c0-.276.224-.5.5-.5s.5.224.5.5v11c0 .276-.224.5-.5.5z"/></svg>